<svg width="24" height="24" viewBox="0 0 24 24" fill="none" xmlns="http://www.w3.org/2000/svg">
<path d="M12 4.5C9.43547 4.5 7.35482 6.51562 7.35482 9C7.35482 11.4844 9.43547 13.5 12 13.5C14.5645 13.5 16.6451 11.4844 16.6451 9C16.6451 6.51562 14.5645 4.5 12 4.5ZM12 11.25C10.7177 11.25 9.6774 10.2422 9.6774 9C9.6774 7.75781 10.7177 6.75 12 6.75C13.2822 6.75 14.3226 7.75781 14.3226 9C14.3226 10.2422 13.2822 11.25 12 11.25ZM12 0C5.37095 0 -1.52588e-05 5.20312 -1.52588e-05 11.625C-1.52588e-05 18.0469 5.37095 23.25 12 23.25C18.629 23.25 24 18.0469 24 11.625C24 5.20312 18.629 0 12 0ZM12 21C9.59515 21 7.39837 20.1422 5.70482 18.7313C6.42579 17.6531 7.65966 16.9219 9.07257 16.8797C10.079 17.1797 11.0371 17.3297 12 17.3297C12.9629 17.3297 13.921 17.1844 14.9274 16.8797C16.3403 16.9266 17.5742 17.6531 18.2951 18.7313C16.6016 20.1422 14.4048 21 12 21ZM19.8726 17.0578C18.6919 15.5859 16.8677 14.625 14.7871 14.625C14.2935 14.625 13.529 15.075 12 15.075C10.4758 15.075 9.70644 14.625 9.21289 14.625C7.13708 14.625 5.31289 15.5859 4.1274 17.0578C2.99515 15.525 2.32257 13.65 2.32257 11.625C2.32257 6.45469 6.66289 2.25 12 2.25C17.3371 2.25 21.6774 6.45469 21.6774 11.625C21.6774 13.65 21.0048 15.525 19.8726 17.0578Z" fill="white"/>
</svg>
