<svg width="21" height="19" viewBox="0 0 21 19" fill="none" xmlns="http://www.w3.org/2000/svg">
<path d="M10.5 18.1244C10.1989 18.124 9.90495 18.033 9.6563 17.8633C5.97267 15.3627 4.37764 13.6482 3.49786 12.5762C1.623 10.2912 0.725412 7.9453 0.750723 5.40487C0.780252 2.49368 3.11586 0.125732 5.9572 0.125732C8.0233 0.125732 9.45428 1.28955 10.2877 2.25885C10.3141 2.28925 10.3467 2.31362 10.3833 2.33033C10.4199 2.34703 10.4597 2.35567 10.5 2.35567C10.5402 2.35567 10.58 2.34703 10.6167 2.33033C10.6533 2.31362 10.6859 2.28925 10.7123 2.25885C11.5457 1.28861 12.9767 0.125732 15.0428 0.125732C17.8841 0.125732 20.2197 2.49368 20.2492 5.40533C20.2746 7.94624 19.376 10.2922 17.5021 12.5767C16.6223 13.6486 15.0273 15.3632 11.3437 17.8638C11.095 18.0333 10.801 18.1241 10.5 18.1244Z" fill="white"/>
</svg>
