<svg width="277" height="337" viewBox="0 0 277 337" fill="none" xmlns="http://www.w3.org/2000/svg">
<path d="M207.569 184.713C205.757 184.908 204.722 186.331 203.298 187.237C174.697 206.196 143.832 213.508 110.313 204.19C84.7537 197.073 67.4767 179.472 54.794 156.954C52.7881 153.395 51.2351 149.512 49.1645 146.018C46.8997 142.136 47.935 139.095 50.9763 136.312C55.9588 131.783 61.5883 128.159 67.412 124.924C67.6061 127.059 68.3179 129 69.3532 130.941C72.718 137.153 76.9887 142.718 82.9418 146.665C85.5301 148.348 85.2713 149.254 82.8771 150.677C79.5123 152.748 76.4711 155.336 73.8828 158.377C72.4592 160.06 70.065 161.807 72.6533 164.072C75.0475 166.207 76.7946 164.331 78.3476 162.519C81.9065 158.442 86.1772 155.271 91.095 153.071C110.119 144.659 129.725 147.312 149.332 150.354C151.208 150.613 151.985 151.907 151.985 153.977C151.92 157.536 150.238 159.995 147.326 161.742C143.961 163.748 140.208 164.072 136.326 164.072C129.273 164.136 122.413 165.236 116.072 168.601C112.06 170.737 108.307 173.325 108.825 178.631C109.278 183.419 113.096 185.361 116.978 186.849C124.872 189.89 133.155 190.861 141.502 191.314C157.55 192.284 173.274 189.761 188.933 186.461C195.015 185.166 201.163 182.708 207.569 184.713Z" fill="#5067AF"/>
<path d="M168.097 13.7559C175.344 15.05 181.233 19.1266 186.992 23.1385C204.333 35.1094 218.116 50.3804 226.916 69.6632C239.017 96.3228 236.881 122.659 224.522 148.607C221.157 155.66 217.016 162.195 212.616 168.601C210.351 171.901 207.569 172.937 204.01 171.837C197.604 169.895 191.457 167.178 186.021 163.166C192.945 155.53 196.051 146.277 196.957 135.924C201.939 138.059 206.663 140.518 212.034 141.295C214.428 141.683 216.563 141.489 217.016 138.836C217.469 136.118 215.463 135.212 213.134 134.759C204.592 133.141 197.539 128.871 191.521 122.788C179.615 110.817 173.209 95.6757 166.932 80.4694C165.638 77.3635 166.932 75.6163 170.038 74.7104C173.468 73.7398 176.315 74.8399 178.968 76.9105C181.815 79.1106 183.756 82.0224 185.503 85.0637C188.998 91.0815 193.463 96.2581 199.48 99.817C203.298 102.017 207.439 103.57 211.451 100.658C215.269 97.8758 215.204 93.6051 214.557 89.3991C213.522 82.5401 210.934 76.2634 208.151 69.9868C200.58 53.0334 189.062 38.9271 176.703 25.4032C173.403 21.8443 169.585 18.5442 168.097 13.7559Z" fill="#F09056"/>
<path d="M38.7465 131.848C35.8994 124.6 36.87 117.094 37.4524 109.717C38.9407 90.9523 44.5055 73.3518 54.5999 57.3043C69.2238 34.139 90.3185 20.9386 117.172 16.4738C128.69 14.5973 140.208 15.1797 151.791 15.762C154.573 15.8914 156.45 17.7033 157.161 20.0974C159.167 27.0212 160.138 34.0743 158.779 41.2568C149.785 39.3803 141.179 40.7392 132.896 44.3628C130.631 45.3334 129.725 45.4628 129.661 42.551C129.531 38.6038 128.755 34.7214 127.461 30.9036C126.684 28.5741 126.102 25.727 122.737 26.6976C119.308 27.7329 120.537 30.5154 121.249 32.7801C123.578 40.2215 123.643 47.7923 121.766 55.2984C117.625 72.1871 107.466 85.6463 97.1775 99.1055C94.7186 102.276 92.3245 101.564 90.1244 98.9113C87.6655 95.9995 87.2773 92.6347 88.1832 89.0111C89.0244 85.5816 90.8362 82.5403 92.4539 79.4343C96.0128 72.7047 98.407 65.7163 97.1775 58.0161C95.8834 50.2512 90.2538 47.7276 83.4595 51.8042C78.6711 54.6513 75.0475 58.7926 71.618 63.128C60.6824 76.846 53.1763 92.3759 47.5468 108.941C44.9585 116.706 43.4055 124.859 38.7465 131.848Z" fill="#00ABE1"/>
<path d="M168.097 13.7559C169.585 18.6089 173.403 21.8443 176.638 25.4032C188.998 38.9271 200.516 53.0334 208.086 69.9868C210.869 76.2634 213.457 82.6048 214.492 89.3991C215.14 93.6051 215.204 97.8758 211.386 100.658C207.375 103.57 203.169 102.017 199.416 99.817C193.333 96.2581 188.868 91.1462 185.439 85.0637C183.692 82.0224 181.75 79.1106 178.903 76.9105C176.25 74.9046 173.403 73.7398 169.974 74.7104C166.868 75.6164 165.573 77.3635 166.868 80.4694C173.209 95.6757 179.615 110.817 191.457 122.788C197.474 128.871 204.592 133.141 213.069 134.759C215.398 135.212 217.404 136.053 216.951 138.836C216.498 141.553 214.363 141.683 211.969 141.295C206.663 140.518 201.939 138.059 196.892 135.924C195.921 146.342 192.88 155.53 185.956 163.166C181.362 161.677 180.715 160.254 183.174 156.371C186.603 151.065 189.062 145.371 189.904 139.095C190.551 134.371 189.58 130.424 185.956 126.671C172.562 112.953 165.315 95.7404 159.685 77.7517C158.714 74.7752 160.656 72.8339 162.662 71.1515C167.903 66.8161 175.733 66.6867 181.815 70.828C185.956 73.6751 188.739 77.6223 191.198 81.893C194.045 86.8755 197.668 91.1462 202.651 94.058C204.075 94.8992 205.757 96.1287 207.31 95.0934C208.798 94.058 208.345 92.0521 208.086 90.4344C206.08 79.3047 200.904 69.4691 195.339 59.8924C188.674 48.5039 179.874 38.7977 171.074 29.0269C167.903 25.5327 164.668 22.0384 162.403 17.8324C160.785 14.9206 159.038 11.7499 161.173 8.38513C163.503 4.76151 167.256 5.27917 170.685 5.79683C175.991 6.57332 180.974 8.57926 185.568 11.297C216.951 29.8034 239.405 55.3629 247.299 91.7286C252.346 115.023 247.364 137.024 236.428 157.924C233.193 164.136 229.375 170.025 225.363 175.719C223.94 177.725 222.257 178.954 220.057 177.466C217.728 175.913 218.569 173.843 219.993 171.901C229.634 158.572 237.075 144.206 240.505 128.03C246.329 100.529 239.275 75.9399 223.228 53.4863C210.869 36.1447 194.498 23.6561 175.862 13.7559C173.727 12.6558 171.397 11.6852 169.068 11.2323C166.091 10.7146 166.932 12.3323 168.097 13.7559Z" fill="#2B2246"/>
<path d="M38.7465 131.847C43.4055 124.924 44.8938 116.706 47.5468 109.006C53.1763 92.4405 60.6177 76.9106 71.618 63.1926C75.0475 58.9219 78.6711 54.7806 83.4595 51.8688C90.2538 47.7922 95.8834 50.3158 97.1775 58.0807C98.4717 65.7809 96.0128 72.8341 92.4539 79.499C90.8362 82.6049 89.0244 85.5815 88.1832 89.0757C87.2773 92.6993 87.6008 96.0641 90.1244 98.9759C92.3892 101.629 94.7833 102.341 97.1775 99.1701C107.466 85.7756 117.69 72.2517 121.766 55.363C123.578 47.8569 123.578 40.2861 121.249 32.8447C120.537 30.58 119.308 27.7976 122.737 26.7622C126.102 25.7269 126.684 28.6388 127.461 30.9682C128.755 34.7213 129.531 38.6037 129.661 42.6156C129.725 45.5274 130.567 45.398 132.896 44.4274C141.179 40.8038 149.785 39.5096 158.779 41.3214C160.462 45.7216 159.491 47.2746 154.897 47.1451C148.426 46.8863 142.149 47.5981 136.132 50.1864C131.731 52.0629 128.82 54.9748 127.461 59.9572C122.349 78.3342 110.96 93.0228 98.407 106.87C96.401 109.135 93.748 108.682 91.2244 107.647C83.5242 104.606 79.6418 96.3876 81.8418 87.6521C82.7477 83.8991 84.4301 80.5343 86.3713 77.2342C88.8949 72.8341 90.642 68.1751 90.9009 63.0632C91.0303 60.9926 91.548 58.2748 89.6714 57.1748C87.6008 56.0101 85.7243 58.1454 84.1713 59.5043C77.8299 65.0691 73.1063 72.0576 68.5767 79.1107C60.0353 92.4405 55.0528 107.259 50.2645 122.206C48.6468 127.253 47.0291 132.365 43.729 136.701C39.523 142.136 34.7994 141.748 31.6287 135.665C28.7169 130.165 28.0051 124.018 28.0051 117.935C28.0051 83.8991 37.97 53.4218 61.9119 28.5093C79.7065 10.003 102.289 1.97921 127.461 0.490932C135.031 0.0379786 142.667 0.102686 150.302 1.13801C152.567 1.46155 154.832 1.84979 154.638 4.63222C154.444 7.8029 151.985 7.93231 149.526 7.67348C135.484 6.05579 121.508 6.57345 107.79 10.0677C77.1181 17.8326 57.0588 37.6331 44.829 66.1045C36.6759 84.9991 33.3758 104.8 34.9288 125.312C35.1229 127.577 35.4464 129.906 36.0935 132.042C36.8053 134.565 37.9053 133.595 38.7465 131.847Z" fill="#2B2246"/>
<path d="M207.569 184.713C201.098 182.772 195.016 185.231 188.933 186.525C173.274 189.825 157.55 192.349 141.502 191.378C133.155 190.861 124.872 189.955 116.978 186.914C113.031 185.361 109.278 183.484 108.825 178.696C108.307 173.39 112.06 170.801 116.072 168.666C122.414 165.301 129.273 164.201 136.326 164.136C140.208 164.072 143.896 163.813 147.326 161.807C150.238 160.06 151.92 157.601 151.985 154.042C151.985 151.971 151.208 150.677 149.332 150.418C129.725 147.377 110.184 144.724 91.095 153.136C86.1773 155.336 81.9066 158.442 78.3476 162.583C76.7947 164.395 74.9828 166.272 72.6534 164.136C70.0651 161.807 72.4592 160.06 73.8828 158.442C76.4711 155.401 79.5124 152.813 82.8772 150.742C85.2714 149.254 85.5302 148.412 82.9419 146.73C76.9888 142.783 72.7828 137.218 69.3533 131.006C68.318 129.13 67.6062 127.124 67.412 124.988C70.3239 121.947 72.4592 123.112 74.0769 126.347C77.1829 132.365 81.0654 137.8 86.6949 141.683C90.3186 144.206 94.0716 145.112 98.6658 143.883C117.172 138.965 135.484 141.489 153.797 145.501C156.967 146.212 157.938 148.736 158.262 151.648C159.362 162.066 151.597 169.895 139.496 170.478C133.996 170.737 128.496 170.542 123.255 172.419C120.149 173.519 115.49 174.49 115.49 177.79C115.49 181.349 120.278 181.737 123.384 182.449C142.149 186.914 160.85 185.749 179.55 181.996C185.827 180.766 192.039 179.472 198.316 178.243C201.357 177.66 204.398 177.531 207.439 177.984C213.587 178.89 215.593 183.16 212.551 188.531C210.804 191.637 208.41 194.29 205.498 196.231C169.456 220.238 130.955 228.068 89.995 211.114C63.5296 200.179 47.6115 178.372 36.1583 152.877C35.1877 150.677 35.3818 148.865 37.5171 147.895C39.8466 146.859 41.2055 148.283 42.1114 150.289C45.4762 157.601 49.1645 164.784 53.7587 171.384C76.7947 204.708 108.696 217.456 148.297 211.891C168.356 209.044 186.798 202.055 203.233 190.084C205.175 188.725 207.892 187.819 207.569 184.713Z" fill="#282045"/>
<path d="M142.602 269.998C142.602 277.698 142.538 285.463 142.602 293.163C142.667 296.14 142.085 298.34 138.461 298.34C135.032 298.34 134.126 296.464 134.126 293.358C134.19 277.828 134.19 262.298 134.126 246.703C134.126 244.374 134.514 242.368 137.167 241.915C139.69 241.462 141.438 242.433 142.473 245.021C145.708 253.304 149.138 261.586 153.473 269.804C153.473 267.539 153.473 265.275 153.473 263.01C153.473 257.38 153.473 251.751 153.473 246.121C153.473 243.339 154.703 241.85 157.614 241.85C160.397 241.786 161.885 242.95 161.885 245.862C161.885 262.039 161.885 278.151 161.885 294.328C161.885 296.399 161.173 297.952 158.973 298.275C156.32 298.728 154.638 297.499 153.667 295.04C150.885 287.987 147.973 280.934 145.126 273.945C144.544 272.586 143.961 271.228 143.379 269.869C143.185 269.869 142.926 269.933 142.602 269.998Z" fill="#282045"/>
<path d="M201.616 265.469C201.616 259.257 201.68 252.98 201.616 246.768C201.551 243.792 202.198 241.656 205.822 241.721C209.381 241.786 210.028 243.986 209.963 246.898C209.898 257.833 209.963 268.834 209.963 279.769C209.963 281.322 210.028 282.81 210.028 284.363C210.092 287.599 211.581 289.669 214.881 289.864C218.375 290.058 220.187 288.116 220.575 284.687C220.704 283.199 220.834 281.646 220.834 280.157C220.834 269.028 220.899 257.963 220.834 246.833C220.834 243.921 221.287 241.721 224.975 241.786C228.599 241.85 229.181 243.986 229.181 246.898C229.116 258.933 229.375 270.969 229.052 282.94C228.728 294.846 222.257 300.087 211.451 297.758C205.692 296.528 202.198 292.517 201.939 286.046C201.616 279.187 201.875 272.328 201.875 265.533C201.745 265.469 201.68 265.469 201.616 265.469Z" fill="#2B2246"/>
<path d="M234.552 283.069C234.293 280.61 234.293 277.957 238.046 277.699C241.993 277.375 243.029 279.705 242.964 283.134C242.899 285.464 243.158 287.858 245.423 289.152C247.429 290.317 249.629 290.252 251.505 288.958C253.641 287.534 253.899 285.205 253.446 282.811C252.735 279.187 249.952 277.181 247.364 275.046C244.452 272.587 241.346 270.387 238.758 267.54C234.228 262.492 233.581 256.669 235.393 250.457C237.011 244.762 241.411 241.851 247.817 241.721C254.029 241.592 258.3 244.18 260.5 249.551C261.6 252.269 261.858 255.18 262.053 258.028C262.247 260.81 260.888 262.298 258.041 262.363C255.388 262.428 253.641 261.392 253.705 258.351C253.705 257.575 253.576 256.863 253.511 256.086C253.188 253.369 252.411 250.91 249.37 250.198C247.299 249.745 245.358 250.198 244.064 251.945C242.381 254.274 242.576 256.863 243.546 259.322C244.517 261.651 246.393 263.269 248.27 264.822C251.311 267.41 254.417 269.869 257.264 272.587C260.629 275.757 262.182 279.899 261.988 284.558C261.6 293.358 256.617 298.211 248.14 298.146C239.405 298.146 235.005 293.293 234.552 283.069Z" fill="#282045"/>
<path d="M67.412 298.34C64.6296 298.34 63.0119 297.499 62.4943 295.169C61.9766 292.646 61.1354 290.122 60.8766 287.599C60.4883 283.587 58.5471 282.551 54.6646 282.746C51.8175 282.875 50.7175 283.716 50.3292 286.434C49.941 289.152 49.0998 291.74 48.5821 294.458C47.9351 297.952 45.5409 298.923 42.4996 298.211C39.5231 297.499 39.7819 295.299 40.3643 292.775C43.9879 277.375 47.4174 261.974 50.9763 246.639C51.5587 244.245 52.2058 241.85 55.5058 241.915C58.8059 241.98 59.3883 244.374 59.906 246.768C63.4002 262.169 66.8297 277.569 70.4533 292.969C71.3592 296.464 70.4533 298.146 67.412 298.34ZM56.0882 263.657C55.7647 263.657 55.4411 263.592 55.1823 263.592C54.6646 266.504 54.2117 269.416 53.6293 272.328C53.2411 274.075 53.694 274.722 55.5706 274.722C57.7059 274.722 57.6412 273.751 57.3824 272.198C56.8647 269.351 56.4765 266.504 56.0882 263.657Z" fill="#282045"/>
<path d="M104.813 269.869C104.813 262.104 104.878 254.339 104.748 246.574C104.684 243.274 105.978 241.786 109.278 241.851C114.325 241.915 119.307 241.915 124.355 241.851C127.396 241.851 128.82 243.08 128.755 246.251C128.69 249.292 127.202 250.263 124.419 250.068C124.29 250.068 124.096 250.068 123.966 250.068C120.408 250.457 114.907 248.386 113.613 250.91C111.801 254.469 113.096 259.516 112.966 263.916C112.901 265.728 113.937 265.857 115.296 265.792C117.755 265.728 120.149 265.728 122.608 265.792C125.519 265.857 126.619 267.539 126.555 270.257C126.49 272.846 125.131 274.14 122.478 274.075C122.349 274.075 122.155 274.075 122.025 274.075C119.113 274.463 114.26 272.716 113.549 274.851C112.254 279.187 113.031 284.169 113.096 288.893C113.16 290.511 114.713 289.928 115.619 289.928C118.66 289.993 121.702 289.993 124.743 289.928C127.396 289.864 128.561 291.093 128.625 293.811C128.625 296.334 127.849 298.146 125.196 298.211C119.566 298.34 113.937 298.34 108.307 298.211C105.331 298.146 104.619 296.205 104.684 293.552C104.878 285.722 104.813 277.763 104.813 269.869Z" fill="#282045"/>
<path d="M25.0932 273.622C25.0932 267.087 24.8991 260.487 25.1579 253.951C25.2873 250.651 24.1226 249.745 21.0166 250.004C18.2989 250.263 15.2577 250.651 15.193 246.316C15.1282 243.339 16.1636 241.657 19.3342 241.721C25.8697 241.786 32.4052 241.786 39.0054 241.721C41.9172 241.721 43.1466 243.145 43.1466 245.927C43.1466 248.71 42.0466 250.522 39.0701 250.004C34.0876 249.163 33.1817 251.363 33.2464 255.892C33.5699 268.251 33.3111 280.546 33.3758 292.905C33.3758 296.076 32.5993 298.34 28.8463 298.146C25.8697 298.017 25.0285 296.399 25.0285 293.617C25.1579 287.017 25.0932 280.352 25.0932 273.622Z" fill="#282045"/>
<path d="M178.062 273.234C178.062 267.151 177.803 261.069 178.127 254.986C178.321 251.168 177.544 249.292 173.274 250.004C171.527 250.327 169.585 250.392 168.55 248.257C167.062 245.151 168.744 241.85 172.238 241.786C178.903 241.656 185.633 241.721 192.298 241.786C195.21 241.786 196.31 243.533 196.18 246.251C196.116 248.774 194.951 250.586 192.298 250.068C186.668 249.033 186.086 251.815 186.151 256.539C186.474 268.704 186.215 280.869 186.28 293.034C186.28 295.946 185.827 298.211 182.268 298.276C178.45 298.34 177.868 296.076 177.933 292.905C178.127 286.369 178.062 279.769 178.062 273.234Z" fill="#282045"/>
<path d="M84.689 266.828C84.689 273.363 84.8184 279.963 84.6243 286.499C84.5596 289.216 85.142 290.381 88.1185 290.122C90.8362 289.863 93.6187 290.122 96.3364 290.058C99.1188 289.993 100.089 291.611 100.154 294.069C100.219 296.593 99.1188 298.275 96.4658 298.275C90.9657 298.34 85.4655 298.34 80.0301 298.275C77.3771 298.275 76.3417 296.722 76.3417 294.134C76.4064 277.957 76.4064 261.845 76.3417 245.668C76.3417 242.95 77.7653 241.85 80.2889 241.786C83.0713 241.656 84.689 242.886 84.689 245.798C84.689 252.851 84.689 259.839 84.689 266.828Z" fill="#282045"/>
<path d="M56.0882 263.657C56.5412 266.504 56.8647 269.351 57.3824 272.134C57.6412 273.687 57.7059 274.657 55.5705 274.657C53.694 274.657 53.2411 274.01 53.6293 272.263C54.2117 269.351 54.6646 266.439 55.1823 263.527C55.4411 263.592 55.7647 263.657 56.0882 263.657Z" fill="#FEFEFF"/>
<path d="M21.7284 328.17C21.7284 329.788 21.2755 331.276 20.4343 332.571C19.5931 333.865 18.3636 334.9 16.7459 335.612C15.1282 336.324 13.187 336.712 10.9869 336.712C8.33394 336.712 6.13388 336.194 4.38677 335.224C3.15733 334.512 2.18671 333.541 1.41022 332.312C0.633731 331.082 0.245483 329.918 0.245483 328.753C0.245483 328.106 0.504313 327.523 0.957266 327.07C1.41022 326.618 1.99259 326.359 2.70438 326.359C3.28674 326.359 3.73969 326.553 4.19265 326.941C4.58089 327.329 4.90444 327.847 5.22797 328.559C5.55151 329.4 5.93976 330.112 6.328 330.694C6.71625 331.276 7.29861 331.729 8.0104 332.118C8.72218 332.506 9.6928 332.7 10.8575 332.7C12.4752 332.7 13.8341 332.312 14.8047 331.535C15.84 330.759 16.3577 329.853 16.3577 328.688C16.3577 327.782 16.0989 327.07 15.5165 326.488C14.9988 325.906 14.287 325.517 13.3811 325.194C12.5399 324.87 11.3752 324.612 9.88692 324.223C7.94569 323.77 6.328 323.253 5.03385 322.606C3.7397 322.023 2.70437 321.182 1.92788 320.082C1.15139 319.047 0.763146 317.753 0.763146 316.135C0.763146 314.647 1.15139 313.352 1.99259 312.188C2.83379 311.023 3.99852 310.117 5.4868 309.535C7.03978 308.888 8.8516 308.629 10.9222 308.629C12.6046 308.629 14.0282 308.823 15.2577 309.276C16.4871 309.664 17.4577 310.246 18.2989 310.894C19.0754 311.605 19.6578 312.317 20.046 313.029C20.4343 313.805 20.6284 314.517 20.6284 315.229C20.6284 315.876 20.3696 316.458 19.9166 316.976C19.4636 317.494 18.8813 317.753 18.1695 317.753C17.5224 317.753 17.0695 317.623 16.7459 317.3C16.4224 316.976 16.0341 316.458 15.7106 315.747C15.1929 314.711 14.6106 313.935 13.9635 313.352C13.2517 312.77 12.1517 312.511 10.6634 312.511C9.23984 312.511 8.07511 312.835 7.23391 313.417C6.39271 314.064 5.93976 314.776 5.93976 315.682C5.93976 316.2 6.06917 316.717 6.39271 317.105C6.71625 317.494 7.10449 317.817 7.62215 318.141C8.13981 318.4 8.65748 318.658 9.17514 318.788C9.6928 318.917 10.5987 319.176 11.8281 319.5C13.3811 319.888 14.74 320.276 15.9694 320.664C17.1989 321.117 18.2342 321.635 19.1401 322.217C19.9813 322.864 20.6931 323.641 21.146 324.547C21.4696 325.647 21.7284 326.812 21.7284 328.17Z" fill="#282045"/>
<path d="M44.8938 326.488C44.8938 327.976 44.6349 329.4 44.182 330.629C43.729 331.924 43.0172 332.959 42.176 333.929C41.2701 334.835 40.2348 335.547 39.0054 336C37.7759 336.453 36.4171 336.712 34.8641 336.712C33.3111 336.712 31.9522 336.453 30.7228 336C29.4934 335.482 28.458 334.771 27.5521 333.865C26.6462 332.959 25.9991 331.859 25.5462 330.629C25.0932 329.4 24.8344 327.976 24.8344 326.488C24.8344 324.935 25.0932 323.576 25.5462 322.282C25.9991 320.988 26.7109 319.953 27.5521 319.047C28.458 318.141 29.4934 317.429 30.7228 316.976C31.9522 316.458 33.3111 316.264 34.8641 316.264C36.4171 316.264 37.7759 316.523 39.0054 316.976C40.2348 317.494 41.3348 318.141 42.176 319.111C43.082 320.017 43.729 321.117 44.182 322.347C44.6349 323.576 44.8938 325 44.8938 326.488ZM39.8466 326.488C39.8466 324.417 39.3936 322.864 38.4877 321.7C37.5818 320.535 36.3524 319.953 34.8641 319.953C33.8935 319.953 32.9876 320.211 32.2758 320.729C31.4993 321.247 30.9169 322.023 30.5287 322.994C30.1404 323.965 29.9463 325.129 29.9463 326.488C29.9463 327.782 30.1404 328.947 30.5287 329.918C30.9169 330.888 31.4993 331.665 32.2758 332.182C33.0523 332.7 33.8935 332.959 34.9288 332.959C36.4818 332.959 37.6465 332.376 38.5524 331.212C39.3936 330.112 39.8466 328.559 39.8466 326.488Z" fill="#282045"/>
<path d="M65.6002 326.876V333.606C65.6002 334.641 65.3414 335.482 64.8884 336C64.4355 336.518 63.7884 336.777 63.0119 336.777C62.2354 336.777 61.653 336.518 61.1354 336C60.6824 335.482 60.4236 334.706 60.4236 333.606V325.582C60.4236 324.288 60.3589 323.317 60.2942 322.606C60.2295 321.894 59.9706 321.311 59.5824 320.859C59.1941 320.406 58.6118 320.211 57.7706 320.211C56.1529 320.211 55.0529 320.794 54.5352 321.894C54.0175 322.994 53.7587 324.676 53.7587 326.747V333.541C53.7587 334.577 53.4999 335.353 53.0469 335.935C52.594 336.453 51.9469 336.712 51.1704 336.712C50.3939 336.712 49.8115 336.453 49.2939 335.935C48.7762 335.418 48.5821 334.577 48.5821 333.541V319.111C48.5821 318.141 48.7762 317.429 49.2292 316.976C49.6821 316.458 50.2645 316.264 50.9763 316.264C51.6881 316.264 52.2704 316.523 52.7234 316.976C53.1763 317.429 53.4352 318.076 53.4352 318.917V319.37C54.3411 318.335 55.247 317.558 56.2176 317.041C57.1882 316.523 58.3529 316.329 59.5177 316.329C60.8118 316.329 61.8472 316.588 62.8178 317.105C63.7237 317.623 64.5002 318.4 65.0825 319.37C65.9237 318.335 66.8296 317.558 67.8003 317.041C68.7709 316.523 69.8709 316.264 71.0356 316.264C72.3945 316.264 73.6239 316.523 74.5946 317.105C75.5652 317.623 76.3417 318.4 76.8593 319.435C77.3123 320.341 77.5064 321.764 77.5064 323.706V333.541C77.5064 334.577 77.2476 335.418 76.7946 335.935C76.3417 336.453 75.6946 336.712 74.9181 336.712C74.1416 336.712 73.5592 336.453 73.0416 335.935C72.5239 335.418 72.3298 334.577 72.3298 333.541V325.065C72.3298 323.964 72.2651 323.123 72.2004 322.476C72.1357 321.829 71.8768 321.247 71.4239 320.859C71.0356 320.406 70.3886 320.211 69.5474 320.211C68.9003 320.211 68.2532 320.406 67.6708 320.794C67.0885 321.182 66.6355 321.7 66.2473 322.412C65.7943 323.188 65.6002 324.741 65.6002 326.876Z" fill="#282045"/>
<path d="M101.189 326.488C101.189 327.976 100.931 329.4 100.478 330.629C100.025 331.924 99.3128 332.959 98.4716 333.929C97.5657 334.835 96.5304 335.547 95.301 336C94.0715 336.453 92.7127 336.712 91.1597 336.712C89.6067 336.712 88.2478 336.453 87.0184 336C85.7889 335.482 84.7536 334.771 83.8477 333.865C82.9418 332.959 82.2947 331.859 81.8418 330.629C81.3888 329.4 81.13 327.976 81.13 326.488C81.13 324.935 81.3888 323.576 81.8418 322.282C82.2947 320.988 83.0065 319.953 83.8477 319.047C84.7536 318.141 85.7889 317.429 87.0184 316.976C88.2478 316.458 89.6067 316.264 91.1597 316.264C92.7127 316.264 94.0715 316.523 95.301 316.976C96.5304 317.494 97.6304 318.141 98.4716 319.111C99.3775 320.017 100.025 321.117 100.478 322.347C100.931 323.576 101.189 325 101.189 326.488ZM96.1422 326.488C96.1422 324.417 95.6892 322.864 94.7833 321.7C93.8774 320.535 92.648 319.953 91.1597 319.953C90.1891 319.953 89.2832 320.211 88.5714 320.729C87.7949 321.247 87.2125 322.023 86.8243 322.994C86.436 323.965 86.2419 325.129 86.2419 326.488C86.2419 327.782 86.436 328.947 86.8243 329.918C87.2125 330.888 87.7949 331.665 88.5714 332.182C89.3479 332.7 90.1891 332.959 91.2244 332.959C92.7774 332.959 93.9421 332.376 94.848 331.212C95.6892 330.112 96.1422 328.559 96.1422 326.488Z" fill="#282045"/>
<path d="M121.378 330.176C121.378 331.535 121.055 332.765 120.343 333.735C119.696 334.706 118.661 335.482 117.366 336C116.072 336.518 114.455 336.776 112.513 336.776C110.701 336.776 109.149 336.518 107.854 335.935C106.56 335.353 105.59 334.706 105.007 333.865C104.36 333.023 104.101 332.182 104.101 331.341C104.101 330.759 104.295 330.306 104.684 329.917C105.072 329.529 105.59 329.335 106.172 329.335C106.69 329.335 107.078 329.465 107.401 329.723C107.66 329.982 107.984 330.37 108.243 330.823C108.76 331.729 109.407 332.376 110.119 332.829C110.831 333.282 111.802 333.476 113.096 333.476C114.131 333.476 114.907 333.282 115.555 332.829C116.202 332.376 116.525 331.859 116.525 331.276C116.525 330.37 116.202 329.723 115.49 329.335C114.843 328.947 113.743 328.559 112.19 328.17C110.443 327.717 109.019 327.264 107.984 326.812C106.884 326.359 106.043 325.711 105.395 324.935C104.748 324.159 104.425 323.188 104.425 322.088C104.425 321.053 104.748 320.147 105.331 319.241C105.913 318.335 106.819 317.623 107.984 317.105C109.149 316.588 110.572 316.329 112.254 316.329C113.549 316.329 114.713 316.458 115.749 316.717C116.784 316.976 117.625 317.364 118.337 317.817C119.049 318.27 119.566 318.788 119.955 319.305C120.343 319.888 120.472 320.405 120.472 320.923C120.472 321.505 120.278 321.958 119.89 322.347C119.502 322.735 118.919 322.929 118.208 322.929C117.69 322.929 117.237 322.8 116.913 322.476C116.525 322.153 116.137 321.764 115.684 321.117C115.296 320.6 114.843 320.211 114.325 319.953C113.807 319.629 113.096 319.5 112.19 319.5C111.284 319.5 110.507 319.694 109.925 320.082C109.343 320.47 109.019 320.923 109.019 321.505C109.019 322.023 109.213 322.476 109.666 322.8C110.119 323.123 110.701 323.447 111.478 323.641C112.254 323.835 113.29 324.159 114.584 324.482C116.137 324.87 117.431 325.323 118.402 325.841C119.372 326.359 120.149 327.006 120.666 327.717C121.119 328.429 121.378 329.206 121.378 330.176Z" fill="#282045"/>
<path d="M137.62 313.935C136.908 313.935 136.326 313.741 135.808 313.288C135.29 312.835 135.031 312.252 135.031 311.476C135.031 310.764 135.29 310.182 135.808 309.729C136.326 309.276 136.908 309.017 137.62 309.017C138.267 309.017 138.849 309.211 139.367 309.664C139.885 310.052 140.143 310.699 140.143 311.476C140.143 312.252 139.885 312.835 139.432 313.288C138.914 313.676 138.332 313.935 137.62 313.935ZM140.143 319.111V333.671C140.143 334.706 139.885 335.418 139.432 335.935C138.979 336.453 138.332 336.712 137.62 336.712C136.908 336.712 136.261 336.453 135.808 335.935C135.355 335.418 135.096 334.641 135.096 333.671V319.241C135.096 318.27 135.355 317.494 135.808 316.976C136.261 316.458 136.843 316.2 137.62 316.2C138.332 316.2 138.979 316.458 139.432 316.976C139.885 317.494 140.143 318.205 140.143 319.111Z" fill="#282045"/>
<path d="M149.914 319.047V319.629C150.82 318.464 151.791 317.623 152.826 317.041C153.861 316.523 155.091 316.199 156.45 316.199C157.809 316.199 158.973 316.458 160.009 317.041C161.044 317.623 161.82 318.464 162.338 319.5C162.662 320.147 162.856 320.794 162.985 321.505C163.115 322.217 163.115 323.123 163.115 324.223V333.606C163.115 334.641 162.856 335.353 162.403 335.871C161.95 336.388 161.367 336.647 160.591 336.647C159.814 336.647 159.232 336.388 158.779 335.871C158.326 335.353 158.067 334.576 158.067 333.606V325.194C158.067 323.511 157.809 322.282 157.356 321.376C156.903 320.47 155.997 320.082 154.573 320.082C153.667 320.082 152.826 320.341 152.114 320.858C151.403 321.376 150.82 322.153 150.497 323.058C150.238 323.835 150.108 325.194 150.108 327.264V333.606C150.108 334.641 149.85 335.418 149.397 335.935C148.944 336.453 148.297 336.712 147.585 336.712C146.873 336.712 146.291 336.453 145.773 335.935C145.32 335.418 145.061 334.641 145.061 333.671V319.111C145.061 318.141 145.255 317.429 145.708 316.976C146.096 316.523 146.679 316.264 147.455 316.264C147.908 316.264 148.297 316.394 148.685 316.588C149.073 316.782 149.332 317.105 149.526 317.558C149.785 317.947 149.914 318.464 149.914 319.047Z" fill="#282045"/>
<path d="M167.774 316.717H169.003V315.229C169.003 313.676 169.197 312.382 169.585 311.476C169.974 310.57 170.685 309.858 171.591 309.47C172.562 309.017 173.856 308.823 175.538 308.823C178.45 308.823 179.939 309.535 179.939 310.958C179.939 311.411 179.809 311.799 179.486 312.188C179.162 312.511 178.839 312.705 178.386 312.705C178.191 312.705 177.868 312.641 177.35 312.576C176.897 312.511 176.444 312.446 176.121 312.446C175.215 312.446 174.633 312.705 174.374 313.223C174.115 313.741 173.985 314.517 173.985 315.552V316.782H175.215C177.156 316.782 178.127 317.364 178.127 318.529C178.127 319.37 177.868 319.888 177.35 320.082C176.833 320.276 176.121 320.406 175.215 320.406H173.985V333.735C173.985 334.706 173.727 335.482 173.274 336C172.821 336.518 172.174 336.777 171.462 336.777C170.75 336.777 170.168 336.518 169.65 336C169.197 335.482 168.938 334.706 168.938 333.735V320.406H167.579C166.803 320.406 166.221 320.211 165.832 319.888C165.444 319.564 165.25 319.111 165.25 318.594C165.25 317.3 166.091 316.717 167.774 316.717Z" fill="#282045"/>
<path d="M183.756 313.935C183.044 313.935 182.462 313.741 181.944 313.288C181.427 312.835 181.168 312.252 181.168 311.476C181.168 310.764 181.427 310.182 181.944 309.729C182.462 309.276 183.044 309.017 183.756 309.017C184.403 309.017 184.986 309.211 185.503 309.664C186.021 310.052 186.28 310.699 186.28 311.476C186.28 312.252 186.021 312.835 185.568 313.288C185.05 313.676 184.468 313.935 183.756 313.935ZM186.28 319.111V333.671C186.28 334.706 186.021 335.418 185.568 335.935C185.115 336.453 184.468 336.712 183.756 336.712C183.044 336.712 182.397 336.453 181.944 335.935C181.491 335.418 181.233 334.641 181.233 333.671V319.241C181.233 318.27 181.491 317.494 181.944 316.976C182.397 316.458 182.98 316.2 183.756 316.2C184.468 316.2 185.115 316.458 185.568 316.976C186.021 317.494 186.28 318.205 186.28 319.111Z" fill="#282045"/>
<path d="M196.051 319.047V319.629C196.957 318.464 197.927 317.623 198.963 317.041C199.998 316.523 201.227 316.199 202.586 316.199C203.945 316.199 205.11 316.458 206.145 317.041C207.18 317.623 207.957 318.464 208.475 319.5C208.798 320.147 208.992 320.794 209.122 321.505C209.251 322.217 209.251 323.123 209.251 324.223V333.606C209.251 334.641 208.992 335.353 208.539 335.871C208.086 336.388 207.504 336.647 206.727 336.647C205.951 336.647 205.369 336.388 204.916 335.871C204.463 335.353 204.204 334.576 204.204 333.606V325.194C204.204 323.511 203.945 322.282 203.492 321.376C203.039 320.47 202.133 320.082 200.71 320.082C199.804 320.082 198.963 320.341 198.251 320.858C197.539 321.376 196.957 322.153 196.633 323.058C196.374 323.835 196.245 325.194 196.245 327.264V333.606C196.245 334.641 195.986 335.418 195.533 335.935C195.08 336.453 194.433 336.712 193.721 336.712C193.009 336.712 192.427 336.453 191.909 335.935C191.456 335.418 191.198 334.641 191.198 333.671V319.111C191.198 318.141 191.392 317.429 191.845 316.976C192.233 316.523 192.815 316.264 193.592 316.264C194.045 316.264 194.433 316.394 194.821 316.588C195.209 316.782 195.468 317.105 195.662 317.558C195.857 318.011 196.051 318.464 196.051 319.047Z" fill="#282045"/>
<path d="M216.887 313.935C216.175 313.935 215.592 313.741 215.075 313.288C214.557 312.835 214.298 312.252 214.298 311.476C214.298 310.764 214.557 310.182 215.075 309.729C215.592 309.276 216.175 309.017 216.887 309.017C217.534 309.017 218.116 309.211 218.634 309.664C219.151 310.052 219.41 310.699 219.41 311.476C219.41 312.252 219.151 312.835 218.698 313.288C218.116 313.676 217.534 313.935 216.887 313.935ZM219.345 319.111V333.671C219.345 334.706 219.087 335.418 218.634 335.935C218.181 336.453 217.534 336.712 216.822 336.712C216.11 336.712 215.463 336.453 215.01 335.935C214.557 335.418 214.298 334.641 214.298 333.671V319.241C214.298 318.27 214.557 317.494 215.01 316.976C215.463 316.458 216.045 316.2 216.822 316.2C217.534 316.2 218.181 316.458 218.634 316.976C219.151 317.494 219.345 318.205 219.345 319.111Z" fill="#282045"/>
<path d="M224.846 316.717H225.428V313.676C225.428 312.835 225.428 312.252 225.493 311.735C225.557 311.282 225.687 310.893 225.881 310.57C226.075 310.246 226.334 309.923 226.722 309.729C227.11 309.535 227.499 309.405 227.952 309.405C228.599 309.405 229.181 309.664 229.699 310.117C230.022 310.44 230.281 310.829 230.346 311.282C230.411 311.735 230.475 312.382 230.475 313.223V316.652H232.352C233.064 316.652 233.581 316.847 233.969 317.17C234.358 317.494 234.552 317.947 234.552 318.464C234.552 319.111 234.293 319.629 233.775 319.888C233.258 320.147 232.481 320.276 231.446 320.276H230.475V329.529C230.475 330.306 230.475 330.953 230.54 331.341C230.605 331.794 230.734 332.118 230.993 332.376C231.252 332.635 231.64 332.765 232.158 332.765C232.481 332.765 232.869 332.7 233.387 332.635C233.905 332.506 234.293 332.506 234.552 332.506C234.94 332.506 235.328 332.7 235.652 333.023C235.975 333.347 236.169 333.735 236.169 334.253C236.169 335.094 235.717 335.676 234.811 336.129C233.905 336.582 232.675 336.776 230.993 336.776C229.44 336.776 228.21 336.518 227.434 336C226.657 335.482 226.075 334.771 225.816 333.8C225.557 332.894 225.428 331.6 225.428 330.047V320.341H224.781C224.069 320.341 223.487 320.147 223.099 319.823C222.71 319.5 222.516 319.047 222.516 318.529C222.516 318.011 222.71 317.558 223.099 317.235C223.487 316.847 224.069 316.717 224.846 316.717Z" fill="#282045"/>
<path d="M256.811 326.488C256.811 327.976 256.552 329.4 256.099 330.629C255.646 331.924 254.935 332.959 254.093 333.929C253.188 334.835 252.152 335.547 250.923 336C249.693 336.453 248.334 336.712 246.782 336.712C245.229 336.712 243.87 336.453 242.64 336C241.411 335.482 240.375 334.771 239.47 333.865C238.564 332.959 237.917 331.859 237.464 330.629C237.011 329.4 236.752 327.976 236.752 326.488C236.752 324.935 237.011 323.576 237.464 322.282C237.917 320.988 238.628 319.953 239.47 319.047C240.375 318.141 241.411 317.429 242.64 316.976C243.87 316.458 245.229 316.264 246.782 316.264C248.334 316.264 249.693 316.523 250.923 316.976C252.152 317.494 253.252 318.141 254.093 319.111C254.999 320.017 255.646 321.117 256.099 322.347C256.617 323.576 256.811 325 256.811 326.488ZM251.764 326.488C251.764 324.417 251.311 322.864 250.405 321.7C249.499 320.535 248.27 319.953 246.782 319.953C245.811 319.953 244.905 320.211 244.193 320.729C243.417 321.247 242.834 322.023 242.446 322.994C242.058 323.965 241.864 325.129 241.864 326.488C241.864 327.782 242.058 328.947 242.446 329.918C242.834 330.888 243.417 331.665 244.193 332.182C244.97 332.7 245.811 332.959 246.846 332.959C248.399 332.959 249.564 332.376 250.47 331.212C251.311 330.112 251.764 328.559 251.764 326.488Z" fill="#282045"/>
<path d="M277 330.176C277 331.535 276.676 332.765 275.965 333.735C275.318 334.706 274.282 335.482 272.988 336C271.694 336.518 270.076 336.776 268.135 336.776C266.323 336.776 264.77 336.518 263.476 335.935C262.182 335.353 261.211 334.706 260.629 333.865C259.982 333.023 259.723 332.182 259.723 331.341C259.723 330.759 259.917 330.306 260.305 329.917C260.694 329.529 261.211 329.335 261.794 329.335C262.311 329.335 262.7 329.465 263.023 329.723C263.282 329.982 263.606 330.37 263.864 330.823C264.382 331.729 265.029 332.376 265.741 332.829C266.453 333.282 267.423 333.476 268.717 333.476C269.753 333.476 270.529 333.282 271.176 332.829C271.823 332.376 272.147 331.859 272.147 331.276C272.147 330.37 271.823 329.723 271.112 329.335C270.465 328.947 269.364 328.559 267.812 328.17C266.064 327.717 264.641 327.264 263.606 326.812C262.505 326.359 261.664 325.711 261.017 324.935C260.37 324.159 260.047 323.188 260.047 322.088C260.047 321.053 260.37 320.147 260.953 319.241C261.535 318.335 262.441 317.623 263.606 317.105C264.77 316.588 266.194 316.329 267.876 316.329C269.17 316.329 270.335 316.458 271.37 316.717C272.406 316.976 273.247 317.364 273.959 317.817C274.671 318.27 275.188 318.788 275.576 319.305C275.965 319.888 276.094 320.405 276.094 320.923C276.094 321.505 275.9 321.958 275.512 322.347C275.123 322.735 274.541 322.929 273.829 322.929C273.312 322.929 272.859 322.8 272.535 322.476C272.147 322.153 271.759 321.764 271.306 321.117C270.917 320.6 270.465 320.211 269.947 319.953C269.429 319.629 268.717 319.5 267.812 319.5C266.906 319.5 266.129 319.694 265.547 320.082C264.964 320.47 264.641 320.923 264.641 321.505C264.641 322.023 264.835 322.476 265.288 322.8C265.741 323.123 266.323 323.447 267.1 323.641C267.876 323.835 268.912 324.159 270.206 324.482C271.759 324.87 273.053 325.323 274.023 325.841C274.994 326.359 275.771 327.006 276.288 327.717C276.741 328.429 277 329.206 277 330.176Z" fill="#282045"/>
</svg>
