<?xml version="1.0" encoding="utf-8"?>
<!-- Generator: Adobe Illustrator 22.1.0, SVG Export Plug-In . SVG Version: 6.00 Build 0)  -->
<svg version="1.1" id="Capa_1" xmlns="http://www.w3.org/2000/svg" xmlns:xlink="http://www.w3.org/1999/xlink" x="0px" y="0px"
	 viewBox="0 0 651.8 731.1" style="enable-background:new 0 0 651.8 731.1;" xml:space="preserve">
<style type="text/css">
	.st0{fill:#FFFFFF;}
	.st1{fill:#5067AF;}
	.st2{fill:#F09056;}
	.st3{fill:#00ABE1;}
	.st4{fill:#2B2246;}
	.st5{fill:#282045;}
</style>
<circle class="st0" cx="323.4" cy="266.3" r="147.7"/>
<g>
	<g>
		<path class="st1" d="M431.5,381.7c-2.8,0.3-4.4,2.5-6.6,3.9c-44.2,29.3-91.9,40.6-143.7,26.2c-39.5-11-66.2-38.2-85.8-73
			c-3.1-5.5-5.5-11.5-8.7-16.9c-3.5-6-1.9-10.7,2.8-15c7.7-7,16.4-12.6,25.4-17.6c0.3,3.3,1.4,6.3,3,9.3c5.2,9.6,11.8,18.2,21,24.3
			c4,2.6,3.6,4-0.1,6.2c-5.2,3.2-9.9,7.2-13.9,11.9c-2.2,2.6-5.9,5.3-1.9,8.8c3.7,3.3,6.4,0.4,8.8-2.4c5.5-6.3,12.1-11.2,19.7-14.6
			c29.4-13,59.7-8.9,90-4.2c2.9,0.4,4.1,2.4,4.1,5.6c-0.1,5.5-2.7,9.3-7.2,12c-5.2,3.1-11,3.6-17,3.6c-10.9,0.1-21.5,1.8-31.3,7
			c-6.2,3.3-12,7.3-11.2,15.5c0.7,7.4,6.6,10.4,12.6,12.7c12.2,4.7,25,6.2,37.9,6.9c24.8,1.5,49.1-2.4,73.3-7.5
			C412.1,382.4,421.6,378.6,431.5,381.7z"/>
		<path class="st2" d="M370.5,117.5c11.2,2,20.3,8.3,29.2,14.5c26.8,18.5,48.1,42.1,61.7,71.9c18.7,41.2,15.4,81.9-3.7,122
			c-5.2,10.9-11.6,21-18.4,30.9c-3.5,5.1-7.8,6.7-13.3,5c-9.9-3-19.4-7.2-27.8-13.4c10.7-11.8,15.5-26.1,16.9-42.1
			c7.7,3.3,15,7.1,23.3,8.3c3.7,0.6,7,0.3,7.7-3.8c0.7-4.2-2.4-5.6-6-6.3c-13.2-2.5-24.1-9.1-33.4-18.5
			c-18.4-18.5-28.3-41.9-38-65.4c-2-4.8,0-7.5,4.8-8.9c5.3-1.5,9.7,0.2,13.8,3.4c4.4,3.4,7.4,7.9,10.1,12.6
			c5.4,9.3,12.3,17.3,21.6,22.8c5.9,3.4,12.3,5.8,18.5,1.3c5.9-4.3,5.8-10.9,4.8-17.4c-1.6-10.6-5.6-20.3-9.9-30
			c-11.7-26.2-29.5-48-48.6-68.9C378.7,130,372.8,124.9,370.5,117.5z"/>
		<path class="st3" d="M170.6,300c-4.4-11.2-2.9-22.8-2-34.2c2.3-29,10.9-56.2,26.5-81c22.6-35.8,55.2-56.2,96.7-63.1
			c17.8-2.9,35.6-2,53.5-1.1c4.3,0.2,7.2,3,8.3,6.7c3.1,10.7,4.6,21.6,2.5,32.7c-13.9-2.9-27.2-0.8-40,4.8c-3.5,1.5-4.9,1.7-5-2.8
			c-0.2-6.1-1.4-12.1-3.4-18c-1.2-3.6-2.1-8-7.3-6.5c-5.3,1.6-3.4,5.9-2.3,9.4c3.6,11.5,3.7,23.2,0.8,34.8
			c-6.4,26.1-22.1,46.9-38,67.7c-3.8,4.9-7.5,3.8-10.9-0.3c-3.8-4.5-4.4-9.7-3-15.3c1.3-5.3,4.1-10,6.6-14.8
			c5.5-10.4,9.2-21.2,7.3-33.1c-2-12-10.7-15.9-21.2-9.6c-7.4,4.4-13,10.8-18.3,17.5c-16.9,21.2-28.5,45.2-37.2,70.8
			C180.2,276.6,177.8,289.2,170.6,300z"/>
		<path class="st4" d="M370.5,117.5c2.3,7.5,8.2,12.5,13.2,18c19.1,20.9,36.9,42.7,48.6,68.9c4.3,9.7,8.3,19.5,9.9,30
			c1,6.5,1.1,13.1-4.8,17.4c-6.2,4.5-12.7,2.1-18.5-1.3c-9.4-5.5-16.3-13.4-21.6-22.8c-2.7-4.7-5.7-9.2-10.1-12.6
			c-4.1-3.1-8.5-4.9-13.8-3.4c-4.8,1.4-6.8,4.1-4.8,8.9c9.8,23.5,19.7,46.9,38,65.4c9.3,9.4,20.3,16,33.4,18.5c3.6,0.7,6.7,2,6,6.3
			c-0.7,4.2-4,4.4-7.7,3.8c-8.2-1.2-15.5-5-23.3-8.3c-1.5,16.1-6.2,30.3-16.9,42.1c-7.1-2.3-8.1-4.5-4.3-10.5
			c5.3-8.2,9.1-17,10.4-26.7c1-7.3-0.5-13.4-6.1-19.2c-20.7-21.2-31.9-47.8-40.6-75.6c-1.5-4.6,1.5-7.6,4.6-10.2
			c8.1-6.7,20.2-6.9,29.6-0.5c6.4,4.4,10.7,10.5,14.5,17.1c4.4,7.7,10,14.3,17.7,18.8c2.2,1.3,4.8,3.2,7.2,1.6
			c2.3-1.6,1.6-4.7,1.2-7.2c-3.1-17.2-11.1-32.4-19.7-47.2c-10.3-17.6-23.9-32.6-37.5-47.7c-4.9-5.4-9.9-10.8-13.4-17.3
			c-2.5-4.5-5.2-9.4-1.9-14.6c3.6-5.6,9.4-4.8,14.7-4c8.2,1.2,15.9,4.3,23,8.5c48.5,28.6,83.2,68.1,95.4,124.3
			c7.8,36,0.1,70-16.8,102.3c-5,9.6-10.9,18.7-17.1,27.5c-2.2,3.1-4.8,5-8.2,2.7c-3.6-2.4-2.3-5.6-0.1-8.6
			c14.9-20.6,26.4-42.8,31.7-67.8c9-42.5-1.9-80.5-26.7-115.2c-19.1-26.8-44.4-46.1-73.2-61.4c-3.3-1.7-6.9-3.2-10.5-3.9
			C367.4,112.8,368.7,115.3,370.5,117.5z"/>
		<path class="st4" d="M170.6,300c7.2-10.7,9.5-23.4,13.6-35.3c8.7-25.6,20.2-49.6,37.2-70.8c5.3-6.6,10.9-13,18.3-17.5
			c10.5-6.3,19.2-2.4,21.2,9.6c2,11.9-1.8,22.8-7.3,33.1c-2.5,4.8-5.3,9.4-6.6,14.8c-1.4,5.6-0.9,10.8,3,15.3
			c3.5,4.1,7.2,5.2,10.9,0.3c15.9-20.7,31.7-41.6,38-67.7c2.8-11.6,2.8-23.3-0.8-34.8c-1.1-3.5-3-7.8,2.3-9.4
			c5.2-1.6,6.1,2.9,7.3,6.5c2,5.8,3.2,11.8,3.4,18c0.1,4.5,1.4,4.3,5,2.8c12.8-5.6,26.1-7.6,40-4.8c2.6,6.8,1.1,9.2-6,9
			c-10-0.4-19.7,0.7-29,4.7c-6.8,2.9-11.3,7.4-13.4,15.1c-7.9,28.4-25.5,51.1-44.9,72.5c-3.1,3.5-7.2,2.8-11.1,1.2
			c-11.9-4.7-17.9-17.4-14.5-30.9c1.4-5.8,4-11,7-16.1c3.9-6.8,6.6-14,7-21.9c0.2-3.2,1-7.4-1.9-9.1c-3.2-1.8-6.1,1.5-8.5,3.6
			c-9.8,8.6-17.1,19.4-24.1,30.3c-13.2,20.6-20.9,43.5-28.3,66.6c-2.5,7.8-5,15.7-10.1,22.4c-6.5,8.4-13.8,7.8-18.7-1.6
			c-4.5-8.5-5.6-18-5.6-27.4c0-52.6,15.4-99.7,52.4-138.2c27.5-28.6,62.4-41,101.3-43.3c11.7-0.7,23.5-0.6,35.3,1
			c3.5,0.5,7,1.1,6.7,5.4c-0.3,4.9-4.1,5.1-7.9,4.7c-21.7-2.5-43.3-1.7-64.5,3.7c-47.4,12-78.4,42.6-97.3,86.6
			c-12.6,29.2-17.7,59.8-15.3,91.5c0.3,3.5,0.8,7.1,1.8,10.4C167.6,304.2,169.3,302.7,170.6,300z"/>
		<path class="st5" d="M431.5,381.7c-10-3-19.4,0.8-28.8,2.8c-24.2,5.1-48.5,9-73.3,7.5c-12.9-0.8-25.7-2.2-37.9-6.9
			c-6.1-2.4-11.9-5.3-12.6-12.7c-0.8-8.2,5-12.2,11.2-15.5c9.8-5.2,20.4-6.9,31.3-7c6-0.1,11.7-0.5,17-3.6c4.5-2.7,7.1-6.5,7.2-12
			c0-3.2-1.2-5.2-4.1-5.6c-30.3-4.7-60.5-8.8-90,4.2c-7.6,3.4-14.2,8.2-19.7,14.6c-2.4,2.8-5.2,5.7-8.8,2.4c-4-3.6-0.3-6.3,1.9-8.8
			c4-4.7,8.7-8.7,13.9-11.9c3.7-2.3,4.1-3.6,0.1-6.2c-9.2-6.1-15.7-14.7-21-24.3c-1.6-2.9-2.7-6-3-9.3c4.5-4.7,7.8-2.9,10.3,2.1
			c4.8,9.3,10.8,17.7,19.5,23.7c5.6,3.9,11.4,5.3,18.5,3.4c28.6-7.6,56.9-3.7,85.2,2.5c4.9,1.1,6.4,5,6.9,9.5
			c1.7,16.1-10.3,28.2-29,29.1c-8.5,0.4-17,0.1-25.1,3c-4.8,1.7-12,3.2-12,8.3c0,5.5,7.4,6.1,12.2,7.2c29,6.9,57.9,5.1,86.8-0.7
			c9.7-1.9,19.3-3.9,29-5.8c4.7-0.9,9.4-1.1,14.1-0.4c9.5,1.4,12.6,8,7.9,16.3c-2.7,4.8-6.4,8.9-10.9,11.9
			c-55.7,37.1-115.2,49.2-178.5,23c-40.9-16.9-65.5-50.6-83.2-90c-1.5-3.4-1.2-6.2,2.1-7.7c3.6-1.6,5.7,0.6,7.1,3.7
			c5.2,11.3,10.9,22.4,18,32.6c35.6,51.5,84.9,71.2,146.1,62.6c31-4.4,59.5-15.2,84.9-33.7C427.8,387.9,432,386.5,431.5,381.7z"/>
	</g>
	<g>
		<path class="st5" d="M331.1,513.5c0,11.9-0.1,23.9,0,35.8c0.1,4.6-0.8,8-6.4,8c-5.3,0-6.7-2.9-6.7-7.7c0.1-24,0.1-48,0-72.1
			c0-3.6,0.6-6.7,4.7-7.4c3.9-0.7,6.6,0.8,8.2,4.8c5,12.8,10.3,25.6,17,38.3c0-3.5,0-7,0-10.5c0-8.7,0-17.4,0-26.1
			c0-4.3,1.9-6.6,6.4-6.6c4.3-0.1,6.6,1.7,6.6,6.2c0,25,0,49.9,0,74.9c0,3.2-1.1,5.6-4.5,6.1c-4.1,0.7-6.7-1.2-8.2-5
			c-4.3-10.9-8.8-21.8-13.2-32.6c-0.9-2.1-1.8-4.2-2.7-6.3C332,513.3,331.6,513.4,331.1,513.5z"/>
		<path class="st4" d="M422.3,506.5c0-9.6,0.1-19.3,0-28.9c-0.1-4.6,0.9-7.9,6.5-7.8c5.5,0.1,6.5,3.5,6.4,8c-0.1,16.9,0,33.9,0,50.8
			c0,2.4,0.1,4.7,0.1,7.1c0.1,5,2.4,8.2,7.5,8.5c5.4,0.3,8.2-2.7,8.8-8c0.2-2.3,0.4-4.7,0.4-7c0-17.2,0.1-34.3,0-51.5
			c0-4.5,0.7-7.9,6.4-7.8c5.6,0.1,6.5,3.4,6.5,7.9c-0.1,18.6,0.3,37.2-0.2,55.7c-0.5,18.4-10.5,26.5-27.2,22.9
			c-8.9-1.9-14.3-8.1-14.7-18.1c-0.5-10.6-0.1-21.2-0.1-31.7C422.5,506.5,422.4,506.5,422.3,506.5z"/>
		<path class="st5" d="M473.2,533.7c-0.4-3.8-0.4-7.9,5.4-8.3c6.1-0.5,7.7,3.1,7.6,8.4c-0.1,3.6,0.3,7.3,3.8,9.3
			c3.1,1.8,6.5,1.7,9.4-0.3c3.3-2.2,3.7-5.8,3-9.5c-1.1-5.6-5.4-8.7-9.4-12c-4.5-3.8-9.3-7.2-13.3-11.6c-7-7.8-8-16.8-5.2-26.4
			c2.5-8.8,9.3-13.3,19.2-13.5c9.6-0.2,16.2,3.8,19.6,12.1c1.7,4.2,2.1,8.7,2.4,13.1c0.3,4.3-1.8,6.6-6.2,6.7
			c-4.1,0.1-6.8-1.5-6.7-6.2c0-1.2-0.2-2.3-0.3-3.5c-0.5-4.2-1.7-8-6.4-9.1c-3.2-0.7-6.2,0-8.2,2.7c-2.6,3.6-2.3,7.6-0.8,11.4
			c1.5,3.6,4.4,6.1,7.3,8.5c4.7,4,9.5,7.8,13.9,12c5.2,4.9,7.6,11.3,7.3,18.5c-0.6,13.6-8.3,21.1-21.4,21
			C480.7,557,473.9,549.5,473.2,533.7z"/>
		<path class="st5" d="M214.9,557.3c-4.3,0-6.8-1.3-7.6-4.9c-0.8-3.9-2.1-7.8-2.5-11.7c-0.6-6.2-3.6-7.8-9.6-7.5
			c-4.4,0.2-6.1,1.5-6.7,5.7c-0.6,4.2-1.9,8.2-2.7,12.4c-1,5.4-4.7,6.9-9.4,5.8c-4.6-1.1-4.2-4.5-3.3-8.4
			c5.6-23.8,10.9-47.6,16.4-71.3c0.9-3.7,1.9-7.4,7-7.3s6,3.8,6.8,7.5c5.4,23.8,10.7,47.6,16.3,71.4
			C221,554.4,219.6,557,214.9,557.3z M197.4,503.7c-0.5,0-1-0.1-1.4-0.1c-0.8,4.5-1.5,9-2.4,13.5c-0.6,2.7,0.1,3.7,3,3.7
			c3.3,0,3.2-1.5,2.8-3.9C198.6,512.5,198,508.1,197.4,503.7z"/>
		<path class="st5" d="M272.7,513.3c0-12,0.1-24-0.1-36c-0.1-5.1,1.9-7.4,7-7.3c7.8,0.1,15.5,0.1,23.3,0c4.7,0,6.9,1.9,6.8,6.8
			c-0.1,4.7-2.4,6.2-6.7,5.9c-0.2,0-0.5,0-0.7,0c-5.5,0.6-14-2.6-16,1.3c-2.8,5.5-0.8,13.3-1,20.1c-0.1,2.8,1.5,3,3.6,2.9
			c3.8-0.1,7.5-0.1,11.3,0c4.5,0.1,6.2,2.7,6.1,6.9c-0.1,4-2.2,6-6.3,5.9c-0.2,0-0.5,0-0.7,0c-4.5,0.6-12-2.1-13.1,1.2
			c-2,6.7-0.8,14.4-0.7,21.7c0.1,2.5,2.5,1.6,3.9,1.6c4.7,0.1,9.4,0.1,14.1,0c4.1-0.1,5.9,1.8,6,6c0,3.9-1.2,6.7-5.3,6.8
			c-8.7,0.2-17.4,0.2-26.1,0c-4.6-0.1-5.7-3.1-5.6-7.2C272.8,537.8,272.7,525.5,272.7,513.3z"/>
		<path class="st5" d="M149.5,519.1c0-10.1-0.3-20.3,0.1-30.4c0.2-5.1-1.6-6.5-6.4-6.1c-4.2,0.4-8.9,1-9-5.7
			c-0.1-4.6,1.5-7.2,6.4-7.1c10.1,0.1,20.2,0.1,30.4,0c4.5,0,6.4,2.2,6.4,6.5s-1.7,7.1-6.3,6.3c-7.7-1.3-9.1,2.1-9,9.1
			c0.5,19.1,0.1,38.1,0.2,57.2c0,4.9-1.2,8.4-7,8.1c-4.6-0.2-5.9-2.7-5.9-7C149.6,539.8,149.5,529.5,149.5,519.1z"/>
		<path class="st5" d="M385.9,518.5c0-9.4-0.4-18.8,0.1-28.2c0.3-5.9-0.9-8.8-7.5-7.7c-2.7,0.5-5.7,0.6-7.3-2.7
			c-2.3-4.8,0.3-9.9,5.7-10c10.3-0.2,20.7-0.1,31,0c4.5,0,6.2,2.7,6,6.9c-0.1,3.9-1.9,6.7-6,5.9c-8.7-1.6-9.6,2.7-9.5,10
			c0.5,18.8,0.1,37.6,0.2,56.4c0,4.5-0.7,8-6.2,8.1c-5.9,0.1-6.8-3.4-6.7-8.3C386,538.8,385.9,528.6,385.9,518.5z"/>
		<path class="st5" d="M241.6,508.6c0,10.1,0.2,20.3-0.1,30.4c-0.1,4.2,0.8,6,5.4,5.6c4.2-0.4,8.5,0,12.7-0.1
			c4.3-0.1,5.8,2.4,5.9,6.2c0.1,3.9-1.6,6.5-5.7,6.5c-8.5,0.1-17,0.1-25.4,0c-4.1,0-5.7-2.4-5.7-6.4c0.1-25,0.1-49.9,0-74.9
			c0-4.2,2.2-5.9,6.1-6c4.3-0.2,6.8,1.7,6.8,6.2C241.6,487,241.6,497.8,241.6,508.6z"/>
	</g>
	<g>
		<path class="st5" d="M144.3,603.4c0,2.5-0.7,4.8-2,6.8s-3.2,3.6-5.7,4.7c-2.5,1.1-5.5,1.7-8.9,1.7c-4.1,0-7.5-0.8-10.2-2.3
			c-1.9-1.1-3.4-2.6-4.6-4.5s-1.8-3.7-1.8-5.5c0-1,0.4-1.9,1.1-2.6c0.7-0.7,1.6-1.1,2.7-1.1c0.9,0,1.6,0.3,2.3,0.9
			c0.6,0.6,1.1,1.4,1.6,2.5c0.5,1.3,1.1,2.4,1.7,3.3c0.6,0.9,1.5,1.6,2.6,2.2c1.1,0.6,2.6,0.9,4.4,0.9c2.5,0,4.6-0.6,6.1-1.8
			c1.6-1.2,2.4-2.6,2.4-4.4c0-1.4-0.4-2.5-1.3-3.4c-0.8-0.9-1.9-1.5-3.3-2c-1.3-0.5-3.1-0.9-5.4-1.5c-3-0.7-5.5-1.5-7.5-2.5
			c-2-0.9-3.6-2.2-4.8-3.9c-1.2-1.6-1.8-3.6-1.8-6.1c0-2.3,0.6-4.3,1.9-6.1s3.1-3.2,5.4-4.1c2.4-1,5.2-1.4,8.4-1.4
			c2.6,0,4.8,0.3,6.7,1c1.9,0.6,3.4,1.5,4.7,2.5c1.2,1.1,2.1,2.2,2.7,3.3c0.6,1.2,0.9,2.3,0.9,3.4c0,1-0.4,1.9-1.1,2.7
			c-0.7,0.8-1.6,1.2-2.7,1.2c-1,0-1.7-0.2-2.2-0.7s-1.1-1.3-1.6-2.4c-0.8-1.6-1.7-2.8-2.7-3.7c-1.1-0.9-2.8-1.3-5.1-1.3
			c-2.2,0-4,0.5-5.3,1.4c-1.3,1-2,2.1-2,3.5c0,0.8,0.2,1.6,0.7,2.2c0.5,0.6,1.1,1.1,1.9,1.6c0.8,0.4,1.6,0.8,2.4,1s2.2,0.6,4.1,1.1
			c2.4,0.6,4.5,1.2,6.4,1.8c1.9,0.7,3.5,1.5,4.9,2.4c1.3,1,2.4,2.2,3.1,3.6C143.9,599.5,144.3,601.3,144.3,603.4z"/>
		<path class="st5" d="M180.1,600.8c0,2.3-0.4,4.5-1.1,6.4c-0.7,2-1.8,3.6-3.1,5.1c-1.4,1.4-3,2.5-4.9,3.2s-4,1.1-6.4,1.1
			s-4.5-0.4-6.4-1.1c-1.9-0.8-3.5-1.9-4.9-3.3s-2.4-3.1-3.1-5c-0.7-1.9-1.1-4.1-1.1-6.4c0-2.4,0.4-4.5,1.1-6.5c0.7-2,1.8-3.6,3.1-5
			c1.4-1.4,3-2.5,4.9-3.2c1.9-0.8,4-1.1,6.4-1.1s4.5,0.4,6.4,1.1c1.9,0.8,3.6,1.8,4.9,3.3c1.4,1.4,2.4,3.1,3.1,5
			C179.7,596.3,180.1,598.5,180.1,600.8z M172.3,600.8c0-3.2-0.7-5.6-2.1-7.4c-1.4-1.8-3.3-2.7-5.6-2.7c-1.5,0-2.9,0.4-4,1.2
			c-1.2,0.8-2.1,2-2.7,3.5s-0.9,3.3-0.9,5.4c0,2,0.3,3.8,0.9,5.3c0.6,1.5,1.5,2.7,2.7,3.5s2.5,1.2,4.1,1.2c2.4,0,4.2-0.9,5.6-2.7
			C171.6,606.4,172.3,604,172.3,600.8z"/>
		<path class="st5" d="M212.1,601.4v10.4c0,1.6-0.4,2.9-1.1,3.7c-0.7,0.8-1.7,1.2-2.9,1.2s-2.1-0.4-2.9-1.2c-0.7-0.8-1.1-2-1.1-3.7
			v-12.4c0-2-0.1-3.5-0.2-4.6c-0.1-1.1-0.5-2-1.1-2.7s-1.5-1-2.8-1c-2.5,0-4.2,0.9-5,2.6c-0.8,1.7-1.2,4.3-1.2,7.5v10.5
			c0,1.6-0.4,2.8-1.1,3.7c-0.7,0.8-1.7,1.2-2.9,1.2s-2.1-0.4-2.9-1.2c-0.8-0.8-1.1-2.1-1.1-3.7v-22.3c0-1.5,0.3-2.6,1-3.3
			c0.7-0.8,1.6-1.1,2.7-1.1c1.1,0,2,0.4,2.7,1.1c0.7,0.7,1.1,1.7,1.1,3v0.7c1.4-1.6,2.8-2.8,4.3-3.6s3.3-1.1,5.1-1.1
			c2,0,3.6,0.4,5.1,1.2c1.4,0.8,2.6,2,3.5,3.5c1.3-1.6,2.7-2.8,4.2-3.6s3.2-1.2,5-1.2c2.1,0,4,0.4,5.5,1.3c1.5,0.8,2.7,2,3.5,3.6
			c0.7,1.4,1,3.6,1,6.6v15.2c0,1.6-0.4,2.9-1.1,3.7c-0.7,0.8-1.7,1.2-2.9,1.2s-2.1-0.4-2.9-1.2c-0.8-0.8-1.1-2.1-1.1-3.7v-13.1
			c0-1.7-0.1-3-0.2-4c-0.1-1-0.5-1.9-1.2-2.5c-0.6-0.7-1.6-1-2.9-1c-1,0-2,0.3-2.9,0.9c-0.9,0.6-1.6,1.4-2.2,2.5
			C212.4,595.7,212.1,598.1,212.1,601.4z"/>
		<path class="st5" d="M267.1,600.8c0,2.3-0.4,4.5-1.1,6.4c-0.7,2-1.8,3.6-3.1,5.1c-1.4,1.4-3,2.5-4.9,3.2s-4,1.1-6.4,1.1
			s-4.5-0.4-6.4-1.1c-1.9-0.8-3.5-1.9-4.9-3.3s-2.4-3.1-3.1-5c-0.7-1.9-1.1-4.1-1.1-6.4c0-2.4,0.4-4.5,1.1-6.5c0.7-2,1.8-3.6,3.1-5
			c1.4-1.4,3-2.5,4.9-3.2c1.9-0.8,4-1.1,6.4-1.1s4.5,0.4,6.4,1.1c1.9,0.8,3.6,1.8,4.9,3.3c1.4,1.4,2.4,3.1,3.1,5
			S267.1,598.5,267.1,600.8z M259.3,600.8c0-3.2-0.7-5.6-2.1-7.4s-3.3-2.7-5.6-2.7c-1.5,0-2.9,0.4-4,1.2c-1.2,0.8-2.1,2-2.7,3.5
			s-0.9,3.3-0.9,5.4c0,2,0.3,3.8,0.9,5.3c0.6,1.5,1.5,2.7,2.7,3.5s2.5,1.2,4.1,1.2c2.4,0,4.2-0.9,5.6-2.7
			C258.6,606.4,259.3,604,259.3,600.8z"/>
		<path class="st5" d="M298.3,606.5c0,2.1-0.5,4-1.6,5.5c-1,1.5-2.6,2.7-4.6,3.5s-4.5,1.2-7.5,1.2c-2.8,0-5.2-0.4-7.2-1.3
			c-2-0.9-3.5-1.9-4.4-3.2c-1-1.3-1.4-2.6-1.4-3.9c0-0.9,0.3-1.6,0.9-2.2c0.6-0.6,1.4-0.9,2.3-0.9c0.8,0,1.4,0.2,1.9,0.6
			c0.4,0.4,0.9,1,1.3,1.7c0.8,1.4,1.8,2.4,2.9,3.1c1.1,0.7,2.6,1,4.6,1c1.6,0,2.8-0.3,3.8-1s1.5-1.5,1.5-2.4c0-1.4-0.5-2.4-1.6-3
			c-1-0.6-2.7-1.2-5.1-1.8c-2.7-0.7-4.9-1.4-6.5-2.1c-1.7-0.7-3-1.7-4-2.9s-1.5-2.7-1.5-4.4c0-1.6,0.5-3,1.4-4.4s2.3-2.5,4.1-3.3
			c1.8-0.8,4-1.2,6.6-1.2c2,0,3.8,0.2,5.4,0.6c1.6,0.4,2.9,1,4,1.7s1.9,1.5,2.5,2.3c0.6,0.9,0.8,1.7,0.8,2.5c0,0.9-0.3,1.6-0.9,2.2
			c-0.6,0.6-1.5,0.9-2.6,0.9c-0.8,0-1.5-0.2-2-0.7c-0.6-0.5-1.2-1.1-1.9-2.1c-0.6-0.8-1.3-1.4-2.1-1.8c-0.8-0.5-1.9-0.7-3.3-0.7
			s-2.6,0.3-3.5,0.9s-1.4,1.3-1.4,2.2c0,0.8,0.3,1.5,1,2s1.6,1,2.8,1.3c1.2,0.3,2.8,0.8,4.8,1.3c2.4,0.6,4.4,1.3,5.9,2.1
			s2.7,1.8,3.5,2.9C297.9,603.8,298.3,605,298.3,606.5z"/>
		<path class="st5" d="M323.4,581.4c-1.1,0-2-0.3-2.8-1s-1.2-1.6-1.2-2.8c0-1.1,0.4-2,1.2-2.7c0.8-0.7,1.7-1.1,2.8-1.1
			c1,0,1.9,0.3,2.7,1c0.8,0.6,1.2,1.6,1.2,2.8s-0.4,2.1-1.1,2.8C325.4,581,324.5,581.4,323.4,581.4z M327.3,589.4v22.5
			c0,1.6-0.4,2.7-1.1,3.5s-1.7,1.2-2.8,1.2c-1.1,0-2.1-0.4-2.8-1.2c-0.7-0.8-1.1-2-1.1-3.5v-22.3c0-1.5,0.4-2.7,1.1-3.5
			s1.6-1.2,2.8-1.2c1.1,0,2.1,0.4,2.8,1.2C326.9,586.9,327.3,588,327.3,589.4z"/>
		<path class="st5" d="M342.4,589.3v0.9c1.4-1.8,2.9-3.1,4.5-4c1.6-0.8,3.5-1.3,5.6-1.3s3.9,0.4,5.5,1.3c1.6,0.9,2.8,2.2,3.6,3.8
			c0.5,1,0.8,2,1,3.1s0.2,2.5,0.2,4.2v14.5c0,1.6-0.4,2.7-1.1,3.5s-1.6,1.2-2.8,1.2c-1.2,0-2.1-0.4-2.8-1.2c-0.7-0.8-1.1-2-1.1-3.5
			v-13c0-2.6-0.4-4.5-1.1-5.9s-2.1-2-4.3-2c-1.4,0-2.7,0.4-3.8,1.2c-1.1,0.8-2,2-2.5,3.4c-0.4,1.2-0.6,3.3-0.6,6.5v9.8
			c0,1.6-0.4,2.8-1.1,3.6s-1.7,1.2-2.8,1.2c-1.1,0-2-0.4-2.8-1.2c-0.7-0.8-1.1-2-1.1-3.5v-22.5c0-1.5,0.3-2.6,1-3.3
			c0.6-0.7,1.5-1.1,2.7-1.1c0.7,0,1.3,0.2,1.9,0.5s1,0.8,1.3,1.5C342.2,587.6,342.4,588.4,342.4,589.3z"/>
		<path class="st5" d="M370,585.7h1.9v-2.3c0-2.4,0.3-4.4,0.9-5.8c0.6-1.4,1.7-2.5,3.1-3.1c1.5-0.7,3.5-1,6.1-1
			c4.5,0,6.8,1.1,6.8,3.3c0,0.7-0.2,1.3-0.7,1.9c-0.5,0.5-1,0.8-1.7,0.8c-0.3,0-0.8-0.1-1.6-0.2c-0.7-0.1-1.4-0.2-1.9-0.2
			c-1.4,0-2.3,0.4-2.7,1.2c-0.4,0.8-0.6,2-0.6,3.6v1.9h1.9c3,0,4.5,0.9,4.5,2.7c0,1.3-0.4,2.1-1.2,2.4c-0.8,0.3-1.9,0.5-3.3,0.5
			h-1.9V612c0,1.5-0.4,2.7-1.1,3.5s-1.7,1.2-2.8,1.2c-1.1,0-2-0.4-2.8-1.2c-0.7-0.8-1.1-2-1.1-3.5v-20.6h-2.1
			c-1.2,0-2.1-0.3-2.7-0.8s-0.9-1.2-0.9-2C366.1,586.6,367.4,585.7,370,585.7z"/>
		<path class="st5" d="M394.7,581.4c-1.1,0-2-0.3-2.8-1s-1.2-1.6-1.2-2.8c0-1.1,0.4-2,1.2-2.7c0.8-0.7,1.7-1.1,2.8-1.1
			c1,0,1.9,0.3,2.7,1c0.8,0.6,1.2,1.6,1.2,2.8s-0.4,2.1-1.1,2.8C396.7,581,395.8,581.4,394.7,581.4z M398.6,589.4v22.5
			c0,1.6-0.4,2.7-1.1,3.5s-1.7,1.2-2.8,1.2c-1.1,0-2.1-0.4-2.8-1.2c-0.7-0.8-1.1-2-1.1-3.5v-22.3c0-1.5,0.4-2.7,1.1-3.5
			s1.6-1.2,2.8-1.2c1.1,0,2.1,0.4,2.8,1.2C398.2,586.9,398.6,588,398.6,589.4z"/>
		<path class="st5" d="M413.7,589.3v0.9c1.4-1.8,2.9-3.1,4.5-4c1.6-0.8,3.5-1.3,5.6-1.3s3.9,0.4,5.5,1.3c1.6,0.9,2.8,2.2,3.6,3.8
			c0.5,1,0.8,2,1,3.1s0.2,2.5,0.2,4.2v14.5c0,1.6-0.4,2.7-1.1,3.5s-1.6,1.2-2.8,1.2c-1.2,0-2.1-0.4-2.8-1.2c-0.7-0.8-1.1-2-1.1-3.5
			v-13c0-2.6-0.4-4.5-1.1-5.9s-2.1-2-4.3-2c-1.4,0-2.7,0.4-3.8,1.2c-1.1,0.8-2,2-2.5,3.4c-0.4,1.2-0.6,3.3-0.6,6.5v9.8
			c0,1.6-0.4,2.8-1.1,3.6s-1.7,1.2-2.8,1.2c-1.1,0-2-0.4-2.8-1.2c-0.7-0.8-1.1-2-1.1-3.5v-22.5c0-1.5,0.3-2.6,1-3.3
			c0.6-0.7,1.5-1.1,2.7-1.1c0.7,0,1.3,0.2,1.9,0.5s1,0.8,1.3,1.5S413.7,588.4,413.7,589.3z"/>
		<path class="st5" d="M445.9,581.4c-1.1,0-2-0.3-2.8-1s-1.2-1.6-1.2-2.8c0-1.1,0.4-2,1.2-2.7c0.8-0.7,1.7-1.1,2.8-1.1
			c1,0,1.9,0.3,2.7,1c0.8,0.6,1.2,1.6,1.2,2.8s-0.4,2.1-1.1,2.8C447.8,581,446.9,581.4,445.9,581.4z M449.7,589.4v22.5
			c0,1.6-0.4,2.7-1.1,3.5s-1.7,1.2-2.8,1.2c-1.1,0-2.1-0.4-2.8-1.2c-0.7-0.8-1.1-2-1.1-3.5v-22.3c0-1.5,0.4-2.7,1.1-3.5
			s1.6-1.2,2.8-1.2c1.1,0,2.1,0.4,2.8,1.2C449.4,586.9,449.7,588,449.7,589.4z"/>
		<path class="st5" d="M458.2,585.7h0.9V581c0-1.3,0-2.2,0.1-3c0.1-0.7,0.3-1.3,0.6-1.8c0.3-0.5,0.7-1,1.3-1.3
			c0.6-0.3,1.2-0.5,1.9-0.5c1,0,1.9,0.4,2.7,1.1c0.5,0.5,0.9,1.1,1,1.8s0.2,1.7,0.2,3v5.3h2.9c1.1,0,1.9,0.3,2.5,0.8s0.9,1.2,0.9,2
			c0,1-0.4,1.8-1.2,2.2c-0.8,0.4-2,0.6-3.6,0.6h-1.5v14.3c0,1.2,0,2.2,0.1,2.8c0.1,0.7,0.3,1.2,0.7,1.6c0.4,0.4,1,0.6,1.8,0.6
			c0.5,0,1.1-0.1,1.9-0.2c0.8-0.2,1.4-0.2,1.8-0.2c0.6,0,1.2,0.3,1.7,0.8s0.8,1.1,0.8,1.9c0,1.3-0.7,2.2-2.1,2.9s-3.3,1-5.9,1
			c-2.4,0-4.3-0.4-5.5-1.2s-2.1-1.9-2.5-3.4c-0.4-1.4-0.6-3.4-0.6-5.8v-15h-1c-1.1,0-2-0.3-2.6-0.8s-0.9-1.2-0.9-2s0.3-1.5,0.9-2
			C456.1,585.9,457,585.7,458.2,585.7z"/>
		<path class="st5" d="M507.6,600.8c0,2.3-0.4,4.5-1.1,6.4c-0.7,2-1.8,3.6-3.1,5.1c-1.4,1.4-3,2.5-4.9,3.2s-4,1.1-6.4,1.1
			s-4.5-0.4-6.4-1.1c-1.9-0.8-3.5-1.9-4.9-3.3c-1.4-1.4-2.4-3.1-3.1-5s-1.1-4.1-1.1-6.4c0-2.4,0.4-4.5,1.1-6.5s1.8-3.6,3.1-5
			c1.4-1.4,3-2.5,4.9-3.2c1.9-0.8,4-1.1,6.4-1.1s4.5,0.4,6.4,1.1c1.9,0.8,3.6,1.8,4.9,3.3c1.4,1.4,2.4,3.1,3.1,5
			C507.3,596.3,507.6,598.5,507.6,600.8z M499.8,600.8c0-3.2-0.7-5.6-2.1-7.4s-3.3-2.7-5.6-2.7c-1.5,0-2.9,0.4-4,1.2
			c-1.2,0.8-2.1,2-2.7,3.5s-0.9,3.3-0.9,5.4c0,2,0.3,3.8,0.9,5.3s1.5,2.7,2.7,3.5s2.5,1.2,4.1,1.2c2.4,0,4.2-0.9,5.6-2.7
			C499.1,606.4,499.8,604,499.8,600.8z"/>
		<path class="st5" d="M538.8,606.5c0,2.1-0.5,4-1.6,5.5c-1,1.5-2.6,2.7-4.6,3.5s-4.5,1.2-7.5,1.2c-2.8,0-5.2-0.4-7.2-1.3
			c-2-0.9-3.5-1.9-4.4-3.2c-1-1.3-1.4-2.6-1.4-3.9c0-0.9,0.3-1.6,0.9-2.2c0.6-0.6,1.4-0.9,2.3-0.9c0.8,0,1.4,0.2,1.9,0.6
			c0.4,0.4,0.9,1,1.3,1.7c0.8,1.4,1.8,2.4,2.9,3.1c1.1,0.7,2.6,1,4.6,1c1.6,0,2.8-0.3,3.8-1s1.5-1.5,1.5-2.4c0-1.4-0.5-2.4-1.6-3
			c-1-0.6-2.7-1.2-5.1-1.8c-2.7-0.7-4.9-1.4-6.5-2.1c-1.7-0.7-3-1.7-4-2.9s-1.5-2.7-1.5-4.4c0-1.6,0.5-3,1.4-4.4s2.3-2.5,4.1-3.3
			s4-1.2,6.6-1.2c2,0,3.8,0.2,5.4,0.6c1.6,0.4,2.9,1,4,1.7s1.9,1.5,2.5,2.3c0.6,0.9,0.8,1.7,0.8,2.5c0,0.9-0.3,1.6-0.9,2.2
			c-0.6,0.6-1.5,0.9-2.6,0.9c-0.8,0-1.5-0.2-2-0.7c-0.6-0.5-1.2-1.1-1.9-2.1c-0.6-0.8-1.3-1.4-2.1-1.8c-0.8-0.5-1.9-0.7-3.3-0.7
			c-1.4,0-2.6,0.3-3.5,0.9c-0.9,0.6-1.4,1.3-1.4,2.2c0,0.8,0.3,1.5,1,2s1.6,1,2.8,1.3s2.8,0.8,4.8,1.3c2.4,0.6,4.4,1.3,5.9,2.1
			s2.7,1.8,3.5,2.9C538.4,603.8,538.8,605,538.8,606.5z"/>
	</g>
</g>
</svg>
